<svg xmlns="http://www.w3.org/2000/svg" data-name="Layer 1" viewBox="0 0 100 125"><path d="M29.761 55.87a11.63 11.63 0 014.46.88 2.92 2.92 0 01.28-.21L44.921 50l-10.42-6.54a2.92 2.92 0 01-.28-.21 11.74 11.74 0 114.64-3.46l12.1 6.42 22-13.8a1.9 1.9 0 01.37-.2 8.27 8.27 0 0110.87 3.94L58.111 50l26.09 13.85a8.27 8.27 0 01-10.86 3.94 1.9 1.9 0 01-.37-.2l-22-13.8-12.1 6.42a11.72 11.72 0 11-9.1-4.34zm0-30.86a7.41 7.41 0 107.44 7.41 7.41 7.41 0 00-7.44-7.42zm0 50a7.41 7.41 0 10-7.4-7.41 7.41 7.41 0 007.4 7.4z"/></svg>