<svg xmlns="http://www.w3.org/2000/svg" width="100" height="100" viewBox="0 0 26.458 26.458"><path d="M11.291 6.558a.917.917 0 00.632.247c.22 0 .44-.083.633-.247a.88.88 0 000-1.264l-.935-.936h11.657l-.936.936a.88.88 0 000 1.264.917.917 0 00.633.247c.22 0 .44-.083.632-.247l2.447-2.447a.88.88 0 000-1.264L23.607.4a.88.88 0 00-1.265 0 .88.88 0 000 1.264l.936.935H11.62l.908-.908a.88.88 0 000-1.264.88.88 0 00-1.266 0L8.846 2.875a.88.88 0 000 1.264zm-5.993 5.966a.917.917 0 00.633.247c.22 0 .44-.083.632-.247a.88.88 0 000-1.264L4.116 8.84a.88.88 0 00-1.265 0L.405 11.287a.88.88 0 000 1.264.88.88 0 001.264 0l.935-.935v11.657l-.907-.907a.88.88 0 00-1.264 0 .88.88 0 000 1.264l2.447 2.447a.917.917 0 00.631.247c.22 0 .44-.083.633-.247l2.447-2.447a.88.88 0 000-1.264.88.88 0 00-1.266 0l-.935.935V11.616zm20.123-3.932H9.477a.869.869 0 00-.88.88v15.945c0 .495.385.88.88.88h15.944c.496 0 .88-.385.88-.88V9.473a.869.869 0 00-.88-.88zm-.879 15.945H10.356V10.352h14.158v14.186z" fill="#050505" stroke="#0a0a0a" stroke-width=".27534030000000004"/></svg>