<svg xmlns="http://www.w3.org/2000/svg" width="65" height="65" viewBox="0 0 17.198 17.198"><g fill="#050505" stroke="#0a0a0a"><path d="M9.791 5.34a.606.606 0 00.418.164.641.641 0 00.418-.164.582.582 0 000-.837l-1.62-1.6a.582.582 0 00-.836 0L6.553 4.522a.582.582 0 000 .837.582.582 0 00.836 0l.62-.62v7.713l-.601-.6a.582.582 0 00-.837 0 .582.582 0 000 .837l1.619 1.618a.606.606 0 00.417.164.641.641 0 00.42-.164l1.619-1.618a.582.582 0 000-.837.582.582 0 00-.837 0l-.62.619V4.739z" stroke-width=".18187637999999998"/><path d="M16.224.132H.974a.83.83 0 00-.842.842v15.251c0 .473.367.841.842.841h15.25a.83.83 0 00.842-.84V.973a.83.83 0 00-.842-.842zm-.84 15.252H1.814V1.814h13.543v13.57z" stroke-width=".2633729"/></g></svg>